# MagicaVoxel @ Ephtracy

# group
o 

# material
mtllib HardMole.mtl
usemtl palette

# normals
vn -1 0 0
vn 1 0 0
vn 0 0 1
vn 0 0 -1
vn 0 -1 0
vn 0 1 0

# texcoords
vt 0.255859 0.5
vt 0.759766 0.5
vt 0.896484 0.5
vt 0.912109 0.5
vt 0.935547 0.5
vt 0.978516 0.5

# verts
v -0.9 0.9 0
v -0.9 0.9 -0.4
v -0.9 1 0
v -0.9 1 -0.4
v -0.8 0.2 0.1
v -0.8 0.2 0
v -0.8 0.4 0.1
v -0.8 0.4 0
v -0.8 0.6 0.4
v -0.8 0.6 -0.3
v -0.8 0.9 0
v -0.8 0.9 -0.3
v -0.8 1 0
v -0.8 1 -0.3
v -0.8 1.2 0.4
v -0.8 1.2 -0.3
v -0.7 0.1 0.3
v -0.7 0.1 -0.2
v -0.7 0.2 0.1
v -0.7 0.2 0
v -0.7 0.4 0.1
v -0.7 0.4 0
v -0.7 0.6 0.3
v -0.7 0.6 -0.2
v -0.7 0.8 -0.3
v -0.7 0.8 -0.4
v -0.7 0.9 -0.3
v -0.7 0.9 -0.4
v -0.7 1 -0.3
v -0.7 1 -0.4
v -0.7 1.1 -0.3
v -0.7 1.1 -0.4
v -0.6 0 0.1
v -0.6 0 0
v -0.6 0.1 0.1
v -0.6 0.1 0
v -0.5 0.2 0.4
v -0.5 0.2 0.3
v -0.5 0.3 0.4
v -0.5 0.3 0.3
v -0.5 0.7 -0.3
v -0.5 0.7 -0.4
v -0.5 0.8 -0.3
v -0.5 0.8 -0.4
v -0.5 0.9 -0.3
v -0.5 0.9 -0.4
v -0.5 1 -0.3
v -0.5 1 -0.4
v -0.4 0 0.1
v -0.4 0 0
v -0.4 0.1 0.1
v -0.4 0.1 0
v -0.4 0.8 -0.3
v -0.4 0.8 -0.4
v -0.4 0.9 -0.3
v -0.4 0.9 -0.4
v -0.4 1 -0.3
v -0.4 1 -0.4
v -0.4 1.1 -0.3
v -0.4 1.1 -0.4
v -0.2 0.9 -0.3
v -0.2 0.9 -0.4
v -0.2 1 -0.3
v -0.2 1 -0.4
v -0.7 0.9 -0.3
v -0.7 0.9 -0.4
v -0.7 1 -0.3
v -0.7 1 -0.4
v -0.5 0 0.1
v -0.5 0 0
v -0.5 0.1 0.1
v -0.5 0.1 0
v -0.5 0.8 -0.3
v -0.5 0.8 -0.4
v -0.5 0.9 -0.3
v -0.5 0.9 -0.4
v -0.5 1 -0.3
v -0.5 1 -0.4
v -0.5 1.1 -0.3
v -0.5 1.1 -0.4
v -0.4 0.2 0.4
v -0.4 0.2 0.3
v -0.4 0.3 0.4
v -0.4 0.3 0.3
v -0.4 0.7 -0.3
v -0.4 0.7 -0.4
v -0.4 0.8 -0.3
v -0.4 0.8 -0.4
v -0.4 0.9 -0.3
v -0.4 0.9 -0.4
v -0.4 1 -0.3
v -0.4 1 -0.4
v -0.3 0 0.1
v -0.3 0 0
v -0.3 0.1 0.1
v -0.3 0.1 0
v -0.2 0.1 0.3
v -0.2 0.1 -0.2
v -0.2 0.2 0.1
v -0.2 0.2 0
v -0.2 0.4 0.1
v -0.2 0.4 0
v -0.2 0.6 0.3
v -0.2 0.6 -0.2
v -0.2 0.8 -0.3
v -0.2 0.8 -0.4
v -0.2 0.9 -0.3
v -0.2 0.9 -0.4
v -0.2 1 -0.3
v -0.2 1 -0.4
v -0.2 1.1 -0.3
v -0.2 1.1 -0.4
v -0.1 0.2 0.1
v -0.1 0.2 0
v -0.1 0.4 0.1
v -0.1 0.4 0
v -0.1 0.6 0.4
v -0.1 0.6 -0.3
v -0.1 0.9 0
v -0.1 0.9 -0.3
v -0.1 1 0
v -0.1 1 -0.3
v -0.1 1.2 0.4
v -0.1 1.2 -0.3
v 0 0.9 0
v 0 0.9 -0.4
v 0 1 0
v 0 1 -0.4
v -0.8 0.6 0.4
v -0.8 1.2 0.4
v -0.5 0.2 0.4
v -0.5 0.3 0.4
v -0.4 0.2 0.4
v -0.4 0.3 0.4
v -0.1 0.6 0.4
v -0.1 1.2 0.4
v -0.7 0.1 0.3
v -0.7 0.6 0.3
v -0.5 0.2 0.3
v -0.5 0.3 0.3
v -0.4 0.2 0.3
v -0.4 0.3 0.3
v -0.2 0.1 0.3
v -0.2 0.6 0.3
v -0.8 0.2 0.1
v -0.8 0.4 0.1
v -0.7 0.2 0.1
v -0.7 0.4 0.1
v -0.6 0 0.1
v -0.6 0.1 0.1
v -0.5 0 0.1
v -0.5 0.1 0.1
v -0.4 0 0.1
v -0.4 0.1 0.1
v -0.3 0 0.1
v -0.3 0.1 0.1
v -0.2 0.2 0.1
v -0.2 0.4 0.1
v -0.1 0.2 0.1
v -0.1 0.4 0.1
v -0.9 0.9 0
v -0.9 1 0
v -0.8 0.9 0
v -0.8 1 0
v -0.1 0.9 0
v -0.1 1 0
v 0 0.9 0
v 0 1 0
v -0.8 0.2 0
v -0.8 0.4 0
v -0.7 0.2 0
v -0.7 0.4 0
v -0.6 0 0
v -0.6 0.1 0
v -0.5 0 0
v -0.5 0.1 0
v -0.4 0 0
v -0.4 0.1 0
v -0.3 0 0
v -0.3 0.1 0
v -0.2 0.2 0
v -0.2 0.4 0
v -0.1 0.2 0
v -0.1 0.4 0
v -0.7 0.1 -0.2
v -0.7 0.6 -0.2
v -0.6 0.2 -0.2
v -0.6 0.6 -0.2
v -0.3 0.2 -0.2
v -0.3 0.6 -0.2
v -0.2 0.1 -0.2
v -0.2 0.6 -0.2
v -0.8 0.6 -0.3
v -0.8 0.9 -0.3
v -0.8 1 -0.3
v -0.8 1.2 -0.3
v -0.7 0.6 -0.3
v -0.7 0.8 -0.3
v -0.7 0.9 -0.3
v -0.7 1 -0.3
v -0.7 1.1 -0.3
v -0.5 0.7 -0.3
v -0.5 0.8 -0.3
v -0.5 0.9 -0.3
v -0.5 1 -0.3
v -0.5 1.1 -0.3
v -0.4 0.7 -0.3
v -0.4 0.8 -0.3
v -0.4 0.9 -0.3
v -0.4 1 -0.3
v -0.4 1.1 -0.3
v -0.2 0.6 -0.3
v -0.2 0.8 -0.3
v -0.2 0.9 -0.3
v -0.2 1 -0.3
v -0.2 1.1 -0.3
v -0.1 0.6 -0.3
v -0.1 0.9 -0.3
v -0.1 1 -0.3
v -0.1 1.2 -0.3
v -0.9 0.9 -0.4
v -0.9 1 -0.4
v -0.7 0.8 -0.4
v -0.7 0.9 -0.4
v -0.7 1 -0.4
v -0.7 1.1 -0.4
v -0.5 0.7 -0.4
v -0.5 0.8 -0.4
v -0.5 0.9 -0.4
v -0.5 1 -0.4
v -0.5 1.1 -0.4
v -0.4 0.7 -0.4
v -0.4 0.8 -0.4
v -0.4 0.9 -0.4
v -0.4 1 -0.4
v -0.4 1.1 -0.4
v -0.2 0.8 -0.4
v -0.2 0.9 -0.4
v -0.2 1 -0.4
v -0.2 1.1 -0.4
v 0 0.9 -0.4
v 0 1 -0.4
v -0.6 0 0.1
v -0.5 0 0.1
v -0.4 0 0.1
v -0.3 0 0.1
v -0.6 0 0
v -0.5 0 0
v -0.4 0 0
v -0.3 0 0
v -0.7 0.1 0.3
v -0.2 0.1 0.3
v -0.6 0.1 0.1
v -0.5 0.1 0.1
v -0.4 0.1 0.1
v -0.3 0.1 0.1
v -0.6 0.1 0
v -0.5 0.1 0
v -0.4 0.1 0
v -0.3 0.1 0
v -0.7 0.1 -0.2
v -0.2 0.1 -0.2
v -0.5 0.2 0.4
v -0.4 0.2 0.4
v -0.5 0.2 0.3
v -0.4 0.2 0.3
v -0.8 0.2 0.1
v -0.7 0.2 0.1
v -0.2 0.2 0.1
v -0.1 0.2 0.1
v -0.8 0.2 0
v -0.7 0.2 0
v -0.2 0.2 0
v -0.1 0.2 0
v -0.8 0.6 0.4
v -0.1 0.6 0.4
v -0.7 0.6 0.3
v -0.2 0.6 0.3
v -0.7 0.6 -0.2
v -0.6 0.6 -0.2
v -0.3 0.6 -0.2
v -0.2 0.6 -0.2
v -0.8 0.6 -0.3
v -0.7 0.6 -0.3
v -0.2 0.6 -0.3
v -0.1 0.6 -0.3
v -0.5 0.7 -0.3
v -0.4 0.7 -0.3
v -0.5 0.7 -0.4
v -0.4 0.7 -0.4
v -0.7 0.8 -0.3
v -0.5 0.8 -0.3
v -0.4 0.8 -0.3
v -0.2 0.8 -0.3
v -0.7 0.8 -0.4
v -0.5 0.8 -0.4
v -0.4 0.8 -0.4
v -0.2 0.8 -0.4
v -0.9 0.9 0
v -0.8 0.9 0
v -0.1 0.9 0
v 0 0.9 0
v -0.8 0.9 -0.3
v -0.7 0.9 -0.3
v -0.5 0.9 -0.3
v -0.4 0.9 -0.3
v -0.2 0.9 -0.3
v -0.1 0.9 -0.3
v -0.9 0.9 -0.4
v -0.7 0.9 -0.4
v -0.5 0.9 -0.4
v -0.4 0.9 -0.4
v -0.2 0.9 -0.4
v 0 0.9 -0.4
v -0.7 1 -0.3
v -0.5 1 -0.3
v -0.4 1 -0.3
v -0.2 1 -0.3
v -0.7 1 -0.4
v -0.5 1 -0.4
v -0.4 1 -0.4
v -0.2 1 -0.4
v -0.5 0.3 0.4
v -0.4 0.3 0.4
v -0.5 0.3 0.3
v -0.4 0.3 0.3
v -0.8 0.4 0.1
v -0.7 0.4 0.1
v -0.2 0.4 0.1
v -0.1 0.4 0.1
v -0.8 0.4 0
v -0.7 0.4 0
v -0.2 0.4 0
v -0.1 0.4 0
v -0.5 0.8 -0.3
v -0.4 0.8 -0.3
v -0.5 0.8 -0.4
v -0.4 0.8 -0.4
v -0.7 0.9 -0.3
v -0.5 0.9 -0.3
v -0.4 0.9 -0.3
v -0.2 0.9 -0.3
v -0.7 0.9 -0.4
v -0.5 0.9 -0.4
v -0.4 0.9 -0.4
v -0.2 0.9 -0.4
v -0.9 1 0
v -0.8 1 0
v -0.1 1 0
v 0 1 0
v -0.8 1 -0.3
v -0.7 1 -0.3
v -0.5 1 -0.3
v -0.4 1 -0.3
v -0.2 1 -0.3
v -0.1 1 -0.3
v -0.9 1 -0.4
v -0.7 1 -0.4
v -0.5 1 -0.4
v -0.4 1 -0.4
v -0.2 1 -0.4
v 0 1 -0.4
v -0.7 1.1 -0.3
v -0.5 1.1 -0.3
v -0.4 1.1 -0.3
v -0.2 1.1 -0.3
v -0.7 1.1 -0.4
v -0.5 1.1 -0.4
v -0.4 1.1 -0.4
v -0.2 1.1 -0.4
v -0.8 1.2 0.4
v -0.1 1.2 0.4
v -0.8 1.2 -0.3
v -0.1 1.2 -0.3

# faces
f 3/4/1 2/4/1 1/4/1
f 4/4/1 2/4/1 3/4/1
f 7/3/1 6/3/1 5/3/1
f 8/3/1 6/3/1 7/3/1
f 11/1/1 10/1/1 9/1/1
f 12/1/1 10/1/1 11/1/1
f 13/1/1 11/1/1 9/1/1
f 15/1/1 13/1/1 9/1/1
f 15/1/1 14/1/1 13/1/1
f 16/1/1 14/1/1 15/1/1
f 19/1/1 18/1/1 17/1/1
f 20/1/1 18/1/1 19/1/1
f 21/1/1 19/1/1 17/1/1
f 22/1/1 18/1/1 20/1/1
f 23/1/1 21/1/1 17/1/1
f 23/1/1 22/1/1 21/1/1
f 24/1/1 18/1/1 22/1/1
f 24/1/1 22/1/1 23/1/1
f 27/4/1 26/4/1 25/4/1
f 28/4/1 26/4/1 27/4/1
f 31/4/1 30/4/1 29/4/1
f 32/4/1 30/4/1 31/4/1
f 35/3/1 34/3/1 33/3/1
f 36/3/1 34/3/1 35/3/1
f 39/1/1 38/1/1 37/1/1
f 40/1/1 38/1/1 39/1/1
f 43/3/1 42/3/1 41/3/1
f 44/3/1 42/3/1 43/3/1
f 47/4/1 46/4/1 45/4/1
f 48/4/1 46/4/1 47/4/1
f 51/3/1 50/3/1 49/3/1
f 52/3/1 50/3/1 51/3/1
f 55/4/1 54/4/1 53/4/1
f 56/4/1 54/4/1 55/4/1
f 59/4/1 58/4/1 57/4/1
f 60/4/1 58/4/1 59/4/1
f 63/4/1 62/4/1 61/4/1
f 64/4/1 62/4/1 63/4/1
f 65/4/2 66/4/2 67/4/2
f 67/4/2 66/4/2 68/4/2
f 69/3/2 70/3/2 71/3/2
f 71/3/2 70/3/2 72/3/2
f 73/4/2 74/4/2 75/4/2
f 75/4/2 74/4/2 76/4/2
f 77/4/2 78/4/2 79/4/2
f 79/4/2 78/4/2 80/4/2
f 81/1/2 82/1/2 83/1/2
f 83/1/2 82/1/2 84/1/2
f 85/3/2 86/3/2 87/3/2
f 87/3/2 86/3/2 88/3/2
f 89/4/2 90/4/2 91/4/2
f 91/4/2 90/4/2 92/4/2
f 93/3/2 94/3/2 95/3/2
f 95/3/2 94/3/2 96/3/2
f 97/1/2 98/1/2 99/1/2
f 99/1/2 98/1/2 100/1/2
f 97/1/2 99/1/2 101/1/2
f 100/1/2 98/1/2 102/1/2
f 97/1/2 101/1/2 103/1/2
f 101/1/2 102/1/2 103/1/2
f 102/1/2 98/1/2 104/1/2
f 103/1/2 102/1/2 104/1/2
f 105/4/2 106/4/2 107/4/2
f 107/4/2 106/4/2 108/4/2
f 109/4/2 110/4/2 111/4/2
f 111/4/2 110/4/2 112/4/2
f 113/3/2 114/3/2 115/3/2
f 115/3/2 114/3/2 116/3/2
f 117/1/2 118/1/2 119/1/2
f 119/1/2 118/1/2 120/1/2
f 117/1/2 119/1/2 121/1/2
f 117/1/2 121/1/2 123/1/2
f 121/1/2 122/1/2 123/1/2
f 123/1/2 122/1/2 124/1/2
f 125/4/2 126/4/2 127/4/2
f 127/4/2 126/4/2 128/4/2
f 133/1/3 132/1/3 131/1/3
f 134/1/3 132/1/3 133/1/3
f 135/1/3 130/1/3 129/1/3
f 136/1/3 130/1/3 135/1/3
f 139/1/3 138/1/3 137/1/3
f 140/1/3 138/1/3 139/1/3
f 141/1/3 139/1/3 137/1/3
f 142/1/3 138/1/3 140/1/3
f 143/1/3 141/1/3 137/1/3
f 143/1/3 142/1/3 141/1/3
f 144/1/3 138/1/3 142/1/3
f 144/1/3 142/1/3 143/1/3
f 147/3/3 146/3/3 145/3/3
f 148/3/3 146/3/3 147/3/3
f 151/3/3 150/3/3 149/3/3
f 152/3/3 150/3/3 151/3/3
f 155/3/3 154/3/3 153/3/3
f 156/3/3 154/3/3 155/3/3
f 159/3/3 158/3/3 157/3/3
f 160/3/3 158/3/3 159/3/3
f 163/4/3 162/4/3 161/4/3
f 164/4/3 162/4/3 163/4/3
f 167/4/3 166/4/3 165/4/3
f 168/4/3 166/4/3 167/4/3
f 169/3/4 170/3/4 171/3/4
f 171/3/4 170/3/4 172/3/4
f 173/3/4 174/3/4 175/3/4
f 175/3/4 174/3/4 176/3/4
f 177/3/4 178/3/4 179/3/4
f 179/3/4 178/3/4 180/3/4
f 181/3/4 182/3/4 183/3/4
f 183/3/4 182/3/4 184/3/4
f 185/1/4 186/1/4 187/1/4
f 187/1/4 186/1/4 188/1/4
f 185/1/4 187/1/4 189/1/4
f 187/5/4 188/5/4 189/5/4
f 189/5/4 188/5/4 190/5/4
f 185/1/4 189/1/4 191/1/4
f 189/1/4 190/1/4 191/1/4
f 191/1/4 190/1/4 192/1/4
f 193/1/4 194/1/4 197/1/4
f 197/1/4 194/1/4 198/1/4
f 198/1/4 194/1/4 199/1/4
f 195/1/4 196/1/4 200/1/4
f 200/1/4 196/1/4 201/1/4
f 197/5/4 198/5/4 202/5/4
f 202/5/4 198/5/4 203/5/4
f 199/2/4 200/2/4 204/2/4
f 204/2/4 200/2/4 205/2/4
f 201/1/4 196/1/4 206/1/4
f 197/5/4 202/5/4 207/5/4
f 203/5/4 204/5/4 208/5/4
f 208/5/4 204/5/4 209/5/4
f 205/5/4 206/5/4 210/5/4
f 206/1/4 196/1/4 211/1/4
f 210/5/4 206/5/4 211/5/4
f 197/5/4 207/5/4 212/5/4
f 207/5/4 208/5/4 212/5/4
f 212/5/4 208/5/4 213/5/4
f 209/2/4 210/2/4 214/2/4
f 214/2/4 210/2/4 215/2/4
f 211/1/4 196/1/4 216/1/4
f 212/1/4 213/1/4 217/1/4
f 213/1/4 214/1/4 217/1/4
f 217/1/4 214/1/4 218/1/4
f 215/1/4 216/1/4 219/1/4
f 216/1/4 196/1/4 220/1/4
f 219/1/4 216/1/4 220/1/4
f 221/4/4 222/4/4 224/4/4
f 224/4/4 222/4/4 225/4/4
f 223/4/4 224/4/4 228/4/4
f 228/4/4 224/4/4 229/4/4
f 225/4/4 226/4/4 230/4/4
f 230/4/4 226/4/4 231/4/4
f 227/3/4 228/3/4 232/3/4
f 232/3/4 228/3/4 233/3/4
f 229/4/4 230/4/4 234/4/4
f 234/4/4 230/4/4 235/4/4
f 233/4/4 234/4/4 237/4/4
f 237/4/4 234/4/4 238/4/4
f 235/4/4 236/4/4 239/4/4
f 239/4/4 236/4/4 240/4/4
f 238/4/4 239/4/4 241/4/4
f 241/4/4 239/4/4 242/4/4
f 247/3/5 244/3/5 243/3/5
f 248/3/5 244/3/5 247/3/5
f 249/3/5 246/3/5 245/3/5
f 250/3/5 246/3/5 249/3/5
f 253/1/5 252/1/5 251/1/5
f 254/1/5 252/1/5 253/1/5
f 255/1/5 252/1/5 254/1/5
f 256/1/5 252/1/5 255/1/5
f 257/1/5 253/1/5 251/1/5
f 258/1/5 255/1/5 254/1/5
f 259/1/5 255/1/5 258/1/5
f 260/1/5 252/1/5 256/1/5
f 261/1/5 259/1/5 258/1/5
f 261/1/5 260/1/5 259/1/5
f 261/1/5 257/1/5 251/1/5
f 261/1/5 258/1/5 257/1/5
f 262/1/5 252/1/5 260/1/5
f 262/1/5 260/1/5 261/1/5
f 265/1/5 264/1/5 263/1/5
f 266/1/5 264/1/5 265/1/5
f 271/3/5 268/3/5 267/3/5
f 272/3/5 268/3/5 271/3/5
f 273/3/5 270/3/5 269/3/5
f 274/3/5 270/3/5 273/3/5
f 277/1/5 276/1/5 275/1/5
f 278/1/5 276/1/5 277/1/5
f 279/1/5 277/1/5 275/1/5
f 282/1/5 276/1/5 278/1/5
f 283/1/5 279/1/5 275/1/5
f 284/5/5 281/5/5 280/5/5
f 284/1/5 279/1/5 283/1/5
f 284/5/5 282/5/5 281/5/5
f 284/5/5 280/5/5 279/5/5
f 285/1/5 276/1/5 282/1/5
f 285/5/5 282/5/5 284/5/5
f 286/1/5 276/1/5 285/1/5
f 289/3/5 288/3/5 287/3/5
f 290/3/5 288/3/5 289/3/5
f 295/4/5 292/4/5 291/4/5
f 296/4/5 292/4/5 295/4/5
f 297/4/5 294/4/5 293/4/5
f 298/4/5 294/4/5 297/4/5
f 303/4/5 300/4/5 299/4/5
f 308/4/5 302/4/5 301/4/5
f 309/4/5 303/4/5 299/4/5
f 309/4/5 304/4/5 303/4/5
f 310/4/5 304/4/5 309/4/5
f 311/4/5 306/4/5 305/4/5
f 312/4/5 306/4/5 311/4/5
f 313/4/5 308/4/5 307/4/5
f 314/4/5 302/4/5 308/4/5
f 314/4/5 308/4/5 313/4/5
f 319/4/5 316/4/5 315/4/5
f 320/4/5 316/4/5 319/4/5
f 321/4/5 318/4/5 317/4/5
f 322/4/5 318/4/5 321/4/5
f 323/1/6 324/1/6 325/1/6
f 325/1/6 324/1/6 326/1/6
f 327/3/6 328/3/6 331/3/6
f 331/3/6 328/3/6 332/3/6
f 329/3/6 330/3/6 333/3/6
f 333/3/6 330/3/6 334/3/6
f 335/3/6 336/3/6 337/3/6
f 337/3/6 336/3/6 338/3/6
f 339/4/6 340/4/6 343/4/6
f 343/4/6 340/4/6 344/4/6
f 341/4/6 342/4/6 345/4/6
f 345/4/6 342/4/6 346/4/6
f 347/4/6 348/4/6 351/4/6
f 349/4/6 350/4/6 356/4/6
f 347/4/6 351/4/6 357/4/6
f 351/4/6 352/4/6 357/4/6
f 357/4/6 352/4/6 358/4/6
f 353/4/6 354/4/6 359/4/6
f 359/4/6 354/4/6 360/4/6
f 355/4/6 356/4/6 361/4/6
f 356/4/6 350/4/6 362/4/6
f 361/4/6 356/4/6 362/4/6
f 363/4/6 364/4/6 367/4/6
f 367/4/6 364/4/6 368/4/6
f 365/4/6 366/4/6 369/4/6
f 369/4/6 366/4/6 370/4/6
f 371/1/6 372/1/6 373/1/6
f 373/1/6 372/1/6 374/1/6
